<svg width="24" height="24" viewBox="0 0 24 24" fill="none" xmlns="http://www.w3.org/2000/svg">
<g clip-path="url(#clip0_1445_7126)">
<path d="M7.51999 21.48C4.24999 19.94 1.90999 16.76 1.54999 13H0.0499878C0.559988 19.16 5.70999 24 12 24L12.66 23.97L8.84999 20.16L7.51999 21.48ZM8.40999 14.96C8.21999 14.96 8.03999 14.93 7.88999 14.88C7.72999 14.82 7.59999 14.75 7.48999 14.64C7.37999 14.54 7.28999 14.42 7.22999 14.27C7.16999 14.13 7.13999 13.97 7.13999 13.8H5.83999C5.83999 14.16 5.90999 14.48 6.04999 14.75C6.18999 15.02 6.37999 15.25 6.60999 15.44C6.84999 15.62 7.11999 15.76 7.42999 15.85C7.72999 15.95 8.04999 16 8.38999 16C8.75999 16 9.10999 15.95 9.41999 15.85C9.73999 15.75 10.02 15.6 10.25 15.41C10.48 15.22 10.67 14.98 10.8 14.69C10.93 14.4 11 14.08 11 13.72C11 13.53 10.98 13.34 10.93 13.16C10.88 12.98 10.81 12.81 10.7 12.65C10.6 12.49 10.46 12.35 10.3 12.22C10.13 12.09 9.92999 11.99 9.68999 11.91C9.88999 11.82 10.06 11.71 10.21 11.58C10.36 11.45 10.48 11.31 10.58 11.16C10.68 11.01 10.75 10.86 10.8 10.7C10.85 10.54 10.87 10.38 10.87 10.22C10.87 9.86 10.81 9.54 10.69 9.26C10.57 8.98 10.4 8.75 10.18 8.57C9.97999 8.38 9.70999 8.24 9.40999 8.14C9.09999 8.05 8.75999 8 8.38999 8C8.02999 8 7.69999 8.05 7.38999 8.16C7.08999 8.27 6.81999 8.42 6.59999 8.61C6.38999 8.8 6.21999 9.02 6.08999 9.28C5.96999 9.54 5.90999 9.82 5.90999 10.13H7.20999C7.20999 9.96 7.23999 9.81 7.29999 9.68C7.35999 9.55 7.43999 9.43 7.54999 9.34C7.65999 9.25 7.77999 9.17 7.92999 9.12C8.07999 9.07 8.22999 9.04 8.40999 9.04C8.80999 9.04 9.10999 9.14 9.29999 9.35C9.48999 9.55 9.58999 9.84 9.58999 10.21C9.58999 10.39 9.55999 10.55 9.50999 10.7C9.45999 10.85 9.36999 10.97 9.25999 11.07C9.14999 11.17 9.00999 11.25 8.84999 11.31C8.68999 11.37 8.48999 11.4 8.26999 11.4H7.49999V12.43H8.26999C8.48999 12.43 8.68999 12.45 8.86999 12.5C9.04999 12.55 9.19999 12.63 9.31999 12.73C9.43999 12.84 9.53999 12.97 9.60999 13.13C9.67999 13.29 9.70999 13.48 9.70999 13.7C9.70999 14.11 9.58999 14.42 9.35999 14.63C9.12999 14.86 8.80999 14.96 8.40999 14.96ZM16.96 9.04C16.64 8.71 16.26 8.45 15.82 8.27C15.39 8.09 14.9 8 14.36 8H12V16H14.3C14.85 16 15.36 15.91 15.81 15.73C16.26 15.55 16.65 15.3 16.97 14.97C17.29 14.64 17.54 14.24 17.71 13.78C17.88 13.31 17.97 12.79 17.97 12.21V11.81C17.97 11.23 17.88 10.71 17.71 10.24C17.53 9.77 17.28 9.37 16.96 9.04ZM16.57 12.2C16.57 12.62 16.52 12.99 16.43 13.33C16.33 13.66 16.19 13.95 16 14.18C15.81 14.41 15.57 14.59 15.29 14.71C15 14.83 14.67 14.89 14.3 14.89H13.39V9.12H14.36C15.08 9.12 15.63 9.35 16 9.81C16.38 10.27 16.57 10.93 16.57 11.8V12.2ZM12 0L11.34 0.03L15.15 3.84L16.48 2.51C19.75 4.06 22.09 7.23 22.44 10.99H23.94C23.44 4.84 18.29 0 12 0Z" fill="#EC3A39"/>
</g>
<defs>
<clipPath id="clip0_1445_7126">
<rect width="24" height="24" fill="white"/>
</clipPath>
</defs>
</svg> 