<svg width="52" height="26" viewBox="0 0 52 26" fill="none" xmlns="http://www.w3.org/2000/svg">
  <path d="M46.2096 7.98321H48.2991C49.6484 7.98321 50.7469 9.08212 50.7469 10.4319C50.7469 11.7816 49.6484 12.8805 48.2991 12.8805H46.2096V16.5237C46.2096 18.0048 45.0036 19.2112 43.523 19.2112C42.0423 19.2112 40.8364 18.0048 40.8364 16.5237V7.50543C40.8364 3.87425 43.7737 0.935858 47.4036 0.935858H49.2544C50.6037 0.935858 51.7022 2.03477 51.7022 3.38452C51.7022 4.73426 50.6037 5.83317 49.2544 5.83317H47.523C46.7946 5.83317 46.2096 6.41846 46.2096 7.14709V7.98321ZM35.284 7.98321H37.3736C38.7229 7.98321 39.8214 9.08212 39.8214 10.4319C39.8214 11.7816 38.7229 12.8805 37.3736 12.8805H35.284V23.0932C35.284 24.5744 34.0781 25.7808 32.5974 25.7808C31.1168 25.7808 29.9108 24.5744 29.9108 23.0932V7.50543C29.9108 3.87425 32.8482 0.935858 36.4781 0.935858H38.3289C39.6781 0.935858 40.7767 2.03477 40.7767 3.38452C40.7767 4.73426 39.6781 5.83317 38.3289 5.83317H36.5975C35.8691 5.83317 35.284 6.41846 35.284 7.14709V7.98321ZM5.37321 19.5457V23.1052C5.37321 24.5863 4.16722 25.7927 2.6866 25.7927C1.20599 25.7927 0 24.5863 0 23.1052V2.79923C0 1.30614 1.20599 0.0997314 2.6866 0.0997314C4.16722 0.0997314 5.37321 1.30614 5.37321 2.78728V8.04294H8.83594V2.78728C8.83594 1.30614 10.0419 0.0997314 11.5225 0.0997314C13.0032 0.0997314 14.2091 1.30614 14.2091 2.78728V23.0932C14.2091 24.5744 13.0032 25.7808 11.5225 25.7808C10.0419 25.7808 8.83594 24.5744 8.83594 23.0932V14.1347C8.83594 13.4061 8.25086 12.8208 7.52249 12.8208H5.37321V19.5457ZM21.9107 6.60958H22.1495C25.7794 6.60958 28.7168 9.54797 28.7168 13.1791V19.2112C28.7168 22.8424 25.7794 25.7808 22.1495 25.7808H21.9107C18.2808 25.7808 15.3435 22.8424 15.3435 19.2112V13.1791C15.3435 9.54797 18.2808 6.60958 21.9107 6.60958ZM22.0301 11.3874C21.266 11.3874 20.657 11.9966 20.657 12.7611V19.6293C20.657 20.3937 21.266 21.0029 22.0301 21.0029C22.7943 21.0029 23.4033 20.3937 23.4033 19.6293V12.7611C23.4033 11.9966 22.7943 11.3874 22.0301 11.3874ZM43.523 19.9279C45.1707 19.9279 46.5081 21.2657 46.5081 22.9141C46.5081 24.5624 45.1707 25.9002 43.523 25.9002C41.8752 25.9002 40.5378 24.5624 40.5378 22.9141C40.5378 21.2657 41.8752 19.9279 43.523 19.9279Z" fill="#CD352A"/>
</svg>