<svg width="150" height="26" viewBox="0 0 150 26" fill="none" xmlns="http://www.w3.org/2000/svg">
<g clip-path="url(#clip0_1676_8726)">
<path d="M4.53604 22.8141C8.51392 22.8141 10.6056 18.8127 12.4313 13.3983H12.7255C11.99 18.076 12.2238 22.8141 16.6147 22.8141C20.5624 22.8141 22.4485 18.7825 24.0969 13.3983H24.3911C23.6253 17.9894 23.8309 22.8141 28.3388 22.8141C32.2863 22.8141 34.495 18.8711 35.3493 13.4264H32.5808C32.2562 14.6321 31.6959 15.8095 30.6662 15.8095C28.5161 15.8095 29.6949 12.2187 30.636 7.7181L31.9921 1.18447H25.3644C25.3644 1.18447 21.8581 15.8095 19.0892 15.8095C17.0561 15.8095 18.0576 11.8081 18.912 7.65766L20.24 1.18447H13.6122C12.3749 6.03935 9.75322 15.8095 7.30686 15.8095C6.51087 15.8095 6.30534 15.3084 6.30534 14.6623C6.30534 14.2496 6.42222 13.8089 6.57133 13.4264H0.501767C0.177331 14.7207 0 15.9565 0 17.2226C0 20.4008 1.17885 22.8141 4.53604 22.8141ZM39.0049 22.8141C40.7438 22.8141 42.1284 21.4596 42.1284 19.7245C42.1284 17.9894 40.7438 16.6349 39.0049 16.6349C37.2658 16.6349 35.8812 17.9874 35.8812 19.7245C35.8812 21.4615 37.2658 22.8141 39.0049 22.8141ZM56.9454 15.7814C56.9454 17.2528 55.8554 17.9009 54.6482 17.9009H50.4062V13.6056H54.6785C56.0344 13.6056 56.9473 14.4287 56.9473 15.7834L56.9454 15.7814ZM50.4043 5.65894H54.2938C55.414 5.65894 56.2966 6.27687 56.2966 7.57111C56.2966 8.86535 55.2648 9.48327 54.2938 9.48327H50.4043V5.65689V5.65894ZM58.624 11.2788C60.214 10.6607 61.806 9.24781 61.806 6.57072C61.806 3.15703 59.2429 1.18648 55.2952 1.18648H44.9837V22.3714H55.412C59.418 22.3714 62.4528 20.429 62.4528 16.4858C62.4528 13.7203 60.8025 11.8947 58.6221 11.2184V11.2767L58.624 11.2788ZM144.471 11.8081C144.471 14.8093 142.525 17.5164 138.991 17.5164C135.457 17.5164 133.365 14.8677 133.365 11.7497C133.365 8.63193 135.31 6.0414 138.844 6.0414C142.379 6.0414 144.471 8.69019 144.471 11.8081ZM127.856 11.7779C127.856 18.1625 132.688 22.8122 138.934 22.8122C145.178 22.8122 149.979 18.1041 149.979 11.7779C149.979 5.45164 145.149 0.743652 138.904 0.743652C132.66 0.743652 127.858 5.45164 127.858 11.7779H127.856ZM99.9283 6.33321V17.2205H93.506C94.4189 15.25 94.862 11.4538 94.862 6.5688V6.33321H99.9303H99.9283ZM105.349 17.2205V1.18447H89.7638V2.80277C89.7638 10.071 89.4112 15.5741 87.761 17.2226H85.5523V25.7268H90.9729V22.3714H103.021V25.7268H108.442V17.2226H105.349V17.2205ZM116.071 17.2205V14.1007H124.968V9.24576H116.071V6.33321H125.792V1.18447H110.65V22.3714H126.117V17.2226H116.071V17.2205ZM78.1284 1.18447L70.3805 13.2191V1.18447H64.9597V22.3714H70.3805L78.1284 10.3367V22.3714H83.5492V1.18447H78.1284Z" fill="#E31235"/>
</g>
<defs>
<clipPath id="clip0_1676_8726">
<rect width="150" height="26" fill="white"/>
</clipPath>
</defs>
</svg> 