<svg width="560" height="278" viewBox="0 0 560 278" fill="none" xmlns="http://www.w3.org/2000/svg">
<rect x="149" y="12" width="262" height="61" rx="8" fill="#8C56FF"/>
<path d="M186 49.5V35.5H188.2V41.4H195.1V35.5H197.3V49.5H195.1V43.4H188.2V49.5H186ZM206.293 49.5V48.1C206.106 48.38 205.853 48.6467 205.533 48.9C204.813 49.4333 204.033 49.7 203.193 49.7C202.26 49.7 201.493 49.4267 200.893 48.88C200.293 48.3333 199.993 47.6733 199.993 46.9C199.993 46.1133 200.24 45.4533 200.733 44.92C201.24 44.3867 201.926 44.0467 202.793 43.9L206.293 43.3C206.293 42.78 206.106 42.3533 205.733 42.02C205.36 41.6733 204.88 41.5 204.293 41.5C203.706 41.5 203.1 41.72 202.473 42.16C202.246 42.32 202.02 42.5333 201.793 42.8L200.493 41.5C200.76 41.1533 201.08 40.8533 201.453 40.6C202.293 40 203.24 39.7 204.293 39.7C205.48 39.7 206.44 40.0533 207.173 40.76C207.92 41.4533 208.293 42.3333 208.293 43.4V49.5H206.293ZM206.293 45.2V44.9L203.493 45.4C202.493 45.5733 201.993 46.0067 201.993 46.7C201.993 47.06 202.133 47.3667 202.413 47.62C202.706 47.8733 203.1 48 203.593 48C204.353 48 204.993 47.7333 205.513 47.2C206.033 46.6667 206.293 46 206.293 45.2ZM216.888 49.5V46C216.648 46.1467 216.415 46.2667 216.188 46.36C215.615 46.5867 214.982 46.7 214.288 46.7C213.222 46.7 212.355 46.34 211.688 45.62C211.022 44.9 210.688 43.9267 210.688 42.7V39.9H212.688V42.7C212.688 43.34 212.868 43.8533 213.228 44.24C213.602 44.6133 214.088 44.8 214.688 44.8C215.288 44.8 215.828 44.6867 216.308 44.46C216.548 44.3533 216.742 44.2333 216.888 44.1V39.9H218.888V49.5H216.888ZM221.689 49.5V39.9H223.689V46.3L228.689 39.9H230.489V49.5H228.489V43.1L223.489 49.5H221.689ZM240.391 46.4L241.791 47.7C241.511 48.06 241.164 48.3933 240.751 48.7C239.817 49.3667 238.797 49.7 237.691 49.7C236.291 49.7 235.104 49.22 234.131 48.26C233.171 47.2867 232.691 46.1 232.691 44.7C232.691 43.3 233.171 42.12 234.131 41.16C235.104 40.1867 236.291 39.7 237.691 39.7C238.824 39.7 239.831 40.02 240.711 40.66C241.111 40.9533 241.437 41.2667 241.691 41.6L240.291 42.9C240.104 42.6467 239.884 42.4333 239.631 42.26C239.004 41.82 238.357 41.6 237.691 41.6C236.837 41.6 236.124 41.8933 235.551 42.48C234.977 43.0533 234.691 43.7933 234.691 44.7C234.691 45.6067 234.977 46.3533 235.551 46.94C236.124 47.5133 236.837 47.8 237.691 47.8C238.451 47.8 239.111 47.5667 239.671 47.1C239.911 46.9133 240.151 46.68 240.391 46.4ZM242.181 49.5V47.6L242.421 47.66C242.608 47.6867 242.761 47.7 242.881 47.7C243.295 47.7 243.615 47.5933 243.841 47.38C244.081 47.1533 244.281 46.66 244.441 45.9C244.601 45.14 244.681 44.0733 244.681 42.7V39.9H252.081V49.5H250.081V41.8H246.681V42.7C246.681 44.06 246.601 45.2133 246.441 46.16C246.281 47.0933 246.048 47.8133 245.741 48.32C245.435 48.8133 245.088 49.1667 244.701 49.38C244.328 49.5933 243.888 49.7 243.381 49.7C243.075 49.7 242.788 49.6667 242.521 49.6C242.428 49.5867 242.315 49.5533 242.181 49.5ZM262.173 46.5L263.373 47.9C263.119 48.2333 262.786 48.5333 262.373 48.8C261.466 49.4 260.433 49.7 259.273 49.7C257.873 49.7 256.686 49.22 255.713 48.26C254.753 47.2867 254.273 46.1 254.273 44.7C254.273 43.3 254.746 42.12 255.693 41.16C256.653 40.1867 257.813 39.7 259.173 39.7C260.533 39.7 261.653 40.1467 262.533 41.04C263.426 41.92 263.873 43.04 263.873 44.4C263.873 44.52 263.853 44.76 263.813 45.12L263.773 45.4H256.373C256.493 46.08 256.826 46.6533 257.373 47.12C257.919 47.5733 258.586 47.8 259.373 47.8C260.093 47.8 260.773 47.5867 261.413 47.16C261.706 46.9733 261.959 46.7533 262.173 46.5ZM256.373 43.7H261.773C261.613 43.02 261.313 42.4867 260.873 42.1C260.433 41.7 259.866 41.5 259.173 41.5C257.759 41.5 256.826 42.2333 256.373 43.7ZM266.064 49.5V39.9H268.064V43.7H272.764V39.9H274.764V49.5H272.764V45.5H268.064V49.5H266.064ZM277.568 49.5V39.9H279.568V43.7H284.268V39.9H286.268V49.5H284.268V45.5H279.568V49.5H277.568ZM298.172 49.5V39.9H300.172V49.5H298.172ZM291.072 47.7H293.072C293.619 47.7 294.039 47.5667 294.332 47.3C294.625 47.0333 294.772 46.6667 294.772 46.2C294.772 45.7333 294.625 45.3667 294.332 45.1C294.039 44.8333 293.619 44.7 293.072 44.7H291.072V47.7ZM289.072 49.5V39.9H291.072V42.9H293.072C294.205 42.9 295.105 43.2067 295.772 43.82C296.439 44.4333 296.772 45.2267 296.772 46.2C296.772 47.1733 296.439 47.9667 295.772 48.58C295.105 49.1933 294.205 49.5 293.072 49.5H289.072ZM310.278 46.5L311.478 47.9C311.225 48.2333 310.891 48.5333 310.478 48.8C309.571 49.4 308.538 49.7 307.378 49.7C305.978 49.7 304.791 49.22 303.818 48.26C302.858 47.2867 302.378 46.1 302.378 44.7C302.378 43.3 302.851 42.12 303.798 41.16C304.758 40.1867 305.918 39.7 307.278 39.7C308.638 39.7 309.758 40.1467 310.638 41.04C311.531 41.92 311.978 43.04 311.978 44.4C311.978 44.52 311.958 44.76 311.918 45.12L311.878 45.4H304.478C304.598 46.08 304.931 46.6533 305.478 47.12C306.025 47.5733 306.691 47.8 307.478 47.8C308.198 47.8 308.878 47.5867 309.518 47.16C309.811 46.9733 310.065 46.7533 310.278 46.5ZM304.478 43.7H309.878C309.718 43.02 309.418 42.4867 308.978 42.1C308.538 41.7 307.971 41.5 307.278 41.5C305.865 41.5 304.931 42.2333 304.478 43.7ZM326.269 34.8L327.269 36.5C326.935 36.6467 326.615 36.78 326.309 36.9C325.469 37.22 324.522 37.4867 323.469 37.7C321.495 38.1133 320.362 39.3467 320.069 41.4C320.295 41.1333 320.562 40.8867 320.869 40.66C321.589 40.1533 322.355 39.9 323.169 39.9C324.382 39.9 325.449 40.3867 326.369 41.36C327.302 42.32 327.769 43.4667 327.769 44.8C327.769 46.1467 327.295 47.3 326.349 48.26C325.402 49.22 324.275 49.7 322.969 49.7C321.515 49.7 320.315 49.1467 319.369 48.04C318.435 46.9333 317.969 45.3867 317.969 43.4C317.969 41.1333 318.409 39.3867 319.289 38.16C320.182 36.92 321.342 36.1667 322.769 35.9C323.702 35.7 324.549 35.4667 325.309 35.2C325.789 35.0133 326.109 34.88 326.269 34.8ZM320.989 46.94C321.549 47.5133 322.209 47.8 322.969 47.8C323.729 47.8 324.382 47.5133 324.929 46.94C325.489 46.3533 325.769 45.64 325.769 44.8C325.769 43.96 325.489 43.2533 324.929 42.68C324.382 42.0933 323.729 41.8 322.969 41.8C322.209 41.8 321.549 42.0933 320.989 42.68C320.442 43.2533 320.169 43.96 320.169 44.8C320.169 45.64 320.442 46.3533 320.989 46.94ZM335.57 49.5V48.1C335.384 48.38 335.13 48.6467 334.81 48.9C334.09 49.4333 333.31 49.7 332.47 49.7C331.537 49.7 330.77 49.4267 330.17 48.88C329.57 48.3333 329.27 47.6733 329.27 46.9C329.27 46.1133 329.517 45.4533 330.01 44.92C330.517 44.3867 331.204 44.0467 332.07 43.9L335.57 43.3C335.57 42.78 335.384 42.3533 335.01 42.02C334.637 41.6733 334.157 41.5 333.57 41.5C332.984 41.5 332.377 41.72 331.75 42.16C331.524 42.32 331.297 42.5333 331.07 42.8L329.77 41.5C330.037 41.1533 330.357 40.8533 330.73 40.6C331.57 40 332.517 39.7 333.57 39.7C334.757 39.7 335.717 40.0533 336.45 40.76C337.197 41.4533 337.57 42.3333 337.57 43.4V49.5H335.57ZM335.57 45.2V44.9L332.77 45.4C331.77 45.5733 331.27 46.0067 331.27 46.7C331.27 47.06 331.41 47.3667 331.69 47.62C331.984 47.8733 332.377 48 332.87 48C333.63 48 334.27 47.7333 334.79 47.2C335.31 46.6667 335.57 46 335.57 45.2ZM338.861 49.5V47.6L339.101 47.66C339.288 47.6867 339.441 47.7 339.561 47.7C339.974 47.7 340.294 47.5933 340.521 47.38C340.761 47.1533 340.961 46.66 341.121 45.9C341.281 45.14 341.361 44.0733 341.361 42.7V39.9H348.761V49.5H346.761V41.8H343.361V42.7C343.361 44.06 343.281 45.2133 343.121 46.16C342.961 47.0933 342.728 47.8133 342.421 48.32C342.114 48.8133 341.768 49.1667 341.381 49.38C341.008 49.5933 340.568 49.7 340.061 49.7C339.754 49.7 339.468 49.6667 339.201 49.6C339.108 49.5867 338.994 49.5533 338.861 49.5ZM350.052 49.5V47.6L350.292 47.66C350.479 47.6867 350.632 47.7 350.752 47.7C351.166 47.7 351.486 47.5933 351.712 47.38C351.952 47.1533 352.152 46.66 352.312 45.9C352.472 45.14 352.552 44.0733 352.552 42.7V39.9H359.952V49.5H357.952V41.8H354.552V42.7C354.552 44.06 354.472 45.2133 354.312 46.16C354.152 47.0933 353.919 47.8133 353.612 48.32C353.306 48.8133 352.959 49.1667 352.572 49.38C352.199 49.5933 351.759 49.7 351.252 49.7C350.946 49.7 350.659 49.6667 350.392 49.6C350.299 49.5867 350.186 49.5533 350.052 49.5ZM371.844 49.5V39.9H373.844V49.5H371.844ZM364.744 47.7H366.744C367.29 47.7 367.71 47.5667 368.004 47.3C368.297 47.0333 368.444 46.6667 368.444 46.2C368.444 45.7333 368.297 45.3667 368.004 45.1C367.71 44.8333 367.29 44.7 366.744 44.7H364.744V47.7ZM362.744 49.5V39.9H364.744V42.9H366.744C367.877 42.9 368.777 43.2067 369.444 43.82C370.11 44.4333 370.444 45.2267 370.444 46.2C370.444 47.1733 370.11 47.9667 369.444 48.58C368.777 49.1933 367.877 49.5 366.744 49.5H362.744Z" fill="white"/>
<path d="M76.8333 138C76.8333 139.473 78.0272 140.667 79.5 140.667C80.9728 140.667 82.1667 139.473 82.1667 138C82.1667 136.527 80.9728 135.333 79.5 135.333C78.0272 135.333 76.8333 136.527 76.8333 138ZM279.5 88V103.303H280.5V88H279.5ZM265 117.803H94.5V118.803H265V117.803ZM79 133.303V138H80V133.303H79ZM94.5 117.803C85.9396 117.803 79 124.743 79 133.303H80C80 125.295 86.4919 118.803 94.5 118.803V117.803ZM279.5 103.303C279.5 111.311 273.008 117.803 265 117.803V118.803C273.56 118.803 280.5 111.863 280.5 103.303H279.5Z" fill="#673FEF"/>
<path d="M277.333 138C277.333 139.473 278.527 140.667 280 140.667C281.473 140.667 282.667 139.473 282.667 138C282.667 136.527 281.473 135.333 280 135.333C278.527 135.333 277.333 136.527 277.333 138ZM279.5 88L279.5 138H280.5L280.5 88L279.5 88Z" fill="#673FEF"/>
<path d="M282.667 88C282.667 89.4728 281.473 90.6667 280 90.6667C278.527 90.6667 277.333 89.4728 277.333 88C277.333 86.5272 278.527 85.3333 280 85.3333C281.473 85.3333 282.667 86.5272 282.667 88ZM483.167 138C483.167 139.473 481.973 140.667 480.5 140.667C479.027 140.667 477.833 139.473 477.833 138C477.833 136.527 479.027 135.333 480.5 135.333C481.973 135.333 483.167 136.527 483.167 138ZM280.5 88V103.303H279.5V88H280.5ZM295 117.803H465.5V118.803H295V117.803ZM481 133.303V138H480V133.303H481ZM465.5 117.803C474.06 117.803 481 124.743 481 133.303H480C480 125.295 473.508 118.803 465.5 118.803V117.803ZM280.5 103.303C280.5 111.311 286.992 117.803 295 117.803V118.803C286.44 118.803 279.5 111.863 279.5 103.303H280.5Z" fill="#673FEF"/>
<rect x="0.477041" y="153.477" width="175.046" height="124.046" rx="11.523" fill="#F5F7F9"/>
<rect x="0.477041" y="153.477" width="175.046" height="124.046" rx="11.523" stroke="#DFE6EC" stroke-width="0.954082"/>
<path d="M49.9701 197V184.4H59.6901V197H58.3401V185.66H51.3201V197H49.9701ZM69.9141 195.884C69.0621 196.748 68.0241 197.18 66.8001 197.18C65.5761 197.18 64.5321 196.748 63.6681 195.884C62.8161 195.008 62.3901 193.94 62.3901 192.68C62.3901 191.42 62.8161 190.358 63.6681 189.494C64.5321 188.618 65.5761 188.18 66.8001 188.18C68.0241 188.18 69.0621 188.618 69.9141 189.494C70.7781 190.358 71.2101 191.42 71.2101 192.68C71.2101 193.94 70.7781 195.008 69.9141 195.884ZM64.5681 195.038C65.1921 195.686 65.9361 196.01 66.8001 196.01C67.6641 196.01 68.4021 195.692 69.0141 195.056C69.6381 194.408 69.9501 193.616 69.9501 192.68C69.9501 191.744 69.6381 190.958 69.0141 190.322C68.4021 189.674 67.6641 189.35 66.8001 189.35C65.9361 189.35 65.1921 189.674 64.5681 190.322C63.9561 190.958 63.6501 191.744 63.6501 192.68C63.6501 193.604 63.9561 194.39 64.5681 195.038ZM71.8457 197V195.74C71.9177 195.788 71.9897 195.818 72.0617 195.83C72.2177 195.89 72.3857 195.92 72.5657 195.92C72.9377 195.92 73.2257 195.812 73.4297 195.596C73.6457 195.38 73.8257 194.894 73.9697 194.138C74.1137 193.37 74.1857 192.284 74.1857 190.88V188.36H80.4857V197H79.2257V189.53H75.4457V190.88C75.4457 192.152 75.3797 193.214 75.2477 194.066C75.1277 194.906 74.9417 195.548 74.6897 195.992C74.4377 196.436 74.1557 196.748 73.8437 196.928C73.5437 197.096 73.1777 197.18 72.7457 197.18C72.5297 197.18 72.3197 197.15 72.1157 197.09C72.0557 197.078 71.9657 197.048 71.8457 197ZM82.728 200.6V199.43C82.836 199.478 82.932 199.508 83.016 199.52C83.22 199.58 83.424 199.61 83.628 199.61C84.372 199.61 84.912 199.16 85.248 198.26L85.698 197L82.188 188.36H83.538L86.328 195.38L89.118 188.36H90.468L86.508 198.26C86.148 199.172 85.758 199.82 85.338 200.204C84.93 200.588 84.42 200.78 83.808 200.78C83.532 200.78 83.274 200.75 83.034 200.69C82.95 200.678 82.848 200.648 82.728 200.6ZM97.7622 197V193.49C97.5462 193.622 97.3182 193.742 97.0782 193.85C96.5502 194.09 95.9682 194.21 95.3322 194.21C94.3482 194.21 93.5442 193.904 92.9202 193.292C92.3082 192.668 92.0022 191.864 92.0022 190.88V188.36H93.2622V190.88C93.2622 191.516 93.4602 192.038 93.8562 192.446C94.2642 192.842 94.7862 193.04 95.4222 193.04C96.0102 193.04 96.5802 192.908 97.1322 192.644C97.3722 192.512 97.5822 192.374 97.7622 192.23V188.36H99.0222V197H97.7622ZM101.903 197V188.36H103.163V194.84L108.383 188.36H109.463V197H108.203V190.52L102.983 197H101.903ZM114.324 197V189.53H111.264V188.36H118.644V189.53H115.584V197H114.324ZM120.448 197V188.36H121.708V191.24H123.958C124.942 191.24 125.71 191.504 126.262 192.032C126.826 192.548 127.108 193.244 127.108 194.12C127.108 194.996 126.826 195.698 126.262 196.226C125.71 196.742 124.948 197 123.976 197H120.448ZM121.708 195.83H123.976C124.552 195.83 125.008 195.674 125.344 195.362C125.68 195.038 125.848 194.624 125.848 194.12C125.848 193.604 125.674 193.19 125.326 192.878C124.99 192.566 124.534 192.41 123.958 192.41H121.708V195.83ZM40.8896 219.57L41.7896 220.38C41.5496 220.68 41.2316 220.98 40.8356 221.28C39.9956 221.88 39.1136 222.18 38.1896 222.18C37.0016 222.18 35.9816 221.742 35.1296 220.866C34.2896 219.99 33.8696 218.928 33.8696 217.68C33.8696 216.432 34.2896 215.37 35.1296 214.494C35.9816 213.618 37.0016 213.18 38.1896 213.18C39.1256 213.18 39.9896 213.468 40.7816 214.044C41.1056 214.284 41.4116 214.566 41.6996 214.89L40.7996 215.79C40.6076 215.526 40.3856 215.286 40.1336 215.07C39.5576 214.59 38.9096 214.35 38.1896 214.35C37.3616 214.35 36.6416 214.674 36.0296 215.322C35.4296 215.958 35.1296 216.744 35.1296 217.68C35.1296 218.616 35.4296 219.408 36.0296 220.056C36.6416 220.692 37.3616 221.01 38.1896 221.01C38.8736 221.01 39.5396 220.77 40.1876 220.29C40.4636 220.062 40.6976 219.822 40.8896 219.57ZM50.0675 219.57L50.8775 220.38C50.6495 220.692 50.3435 220.992 49.9595 221.28C49.1195 221.88 48.2255 222.18 47.2775 222.18C46.0895 222.18 45.0695 221.742 44.2175 220.866C43.3775 219.99 42.9575 218.928 42.9575 217.68C42.9575 216.432 43.3775 215.37 44.2175 214.494C45.0575 213.618 46.0475 213.18 47.1875 213.18C48.3755 213.18 49.3595 213.588 50.1395 214.404C50.9315 215.22 51.3275 216.252 51.3275 217.5C51.3275 217.56 51.3095 217.716 51.2735 217.968L51.2375 218.148L44.2175 218.13C44.2655 218.91 44.5835 219.588 45.1715 220.164C45.7715 220.728 46.4735 221.01 47.2775 221.01C48.0095 221.01 48.6995 220.77 49.3475 220.29C49.6595 220.038 49.8995 219.798 50.0675 219.57ZM44.2175 217.05H50.0675C49.9715 216.27 49.6535 215.628 49.1135 215.124C48.5855 214.608 47.9435 214.35 47.1875 214.35C46.4315 214.35 45.7715 214.614 45.2075 215.142C44.6435 215.67 44.3135 216.306 44.2175 217.05ZM53.5718 225.78V213.36H54.8318V214.62C55.0358 214.344 55.2818 214.104 55.5698 213.9C56.2178 213.42 56.9618 213.18 57.8018 213.18C58.9898 213.18 59.9918 213.606 60.8078 214.458C61.6238 215.31 62.0318 216.384 62.0318 217.68C62.0318 218.976 61.6238 220.05 60.8078 220.902C59.9918 221.754 58.9898 222.18 57.8018 222.18C56.9618 222.18 56.2178 221.94 55.5698 221.46C55.2818 221.256 55.0358 221.016 54.8318 220.74V225.78H53.5718ZM57.8018 221.01C58.6298 221.01 59.3318 220.698 59.9078 220.074C60.4838 219.45 60.7718 218.652 60.7718 217.68C60.7718 216.708 60.4838 215.91 59.9078 215.286C59.3318 214.662 58.6298 214.35 57.8018 214.35C57.0218 214.35 56.3318 214.674 55.7318 215.322C55.1318 215.97 54.8318 216.756 54.8318 217.68C54.8318 218.604 55.1318 219.39 55.7318 220.038C56.3318 220.686 57.0218 221.01 57.8018 221.01ZM66.0811 222V214.53H63.0211V213.36H70.4011V214.53H67.3411V222H66.0811ZM72.2046 222V213.36H73.4646V219.84L78.6846 213.36H79.7646V222H78.5046V215.52L73.2846 222H72.2046ZM86.9661 225.78V222.18C85.5141 222.18 84.3261 221.754 83.4021 220.902C82.4781 220.038 82.0161 218.964 82.0161 217.68C82.0161 216.396 82.4781 215.328 83.4021 214.476C84.3261 213.612 85.5141 213.18 86.9661 213.18V209.4H88.2261V213.18C89.6781 213.18 90.8661 213.612 91.7901 214.476C92.7141 215.328 93.1761 216.396 93.1761 217.68C93.1761 218.964 92.7141 220.038 91.7901 220.902C90.8661 221.754 89.6781 222.18 88.2261 222.18V225.78H86.9661ZM86.9661 221.01V214.35C85.8621 214.35 84.9681 214.668 84.2841 215.304C83.6121 215.928 83.2761 216.72 83.2761 217.68C83.2761 218.652 83.6121 219.45 84.2841 220.074C84.9561 220.698 85.8501 221.01 86.9661 221.01ZM88.2261 214.35V221.01C89.3421 221.01 90.2361 220.698 90.9081 220.074C91.5801 219.45 91.9161 218.652 91.9161 217.68C91.9161 216.72 91.5741 215.928 90.8901 215.304C90.2181 214.668 89.3301 214.35 88.2261 214.35ZM95.4254 222V213.36H96.6854V219.84L101.905 213.36H102.985V222H101.725V215.52L96.5054 222H95.4254ZM105.867 222V213.36H107.127V217.95L111.447 213.36H112.977L109.647 216.87L113.337 222H111.897L108.837 217.77L107.127 219.57V222H105.867ZM119.999 222V220.83C119.819 221.082 119.591 221.31 119.315 221.514C118.679 221.958 117.977 222.18 117.209 222.18C116.333 222.18 115.601 221.928 115.013 221.424C114.437 220.908 114.149 220.32 114.149 219.66C114.149 218.196 114.989 217.326 116.669 217.05L119.999 216.51C119.999 215.874 119.795 215.358 119.387 214.962C118.991 214.554 118.475 214.35 117.839 214.35C117.215 214.35 116.621 214.56 116.057 214.98C115.793 215.208 115.577 215.418 115.409 215.61L114.599 214.8C114.827 214.5 115.109 214.23 115.445 213.99C116.177 213.45 116.975 213.18 117.839 213.18C118.823 213.18 119.639 213.498 120.287 214.134C120.935 214.77 121.259 215.562 121.259 216.51V222H119.999ZM119.999 218.13V217.59L117.029 218.13C115.949 218.322 115.409 218.832 115.409 219.66C115.409 220.044 115.565 220.368 115.877 220.632C116.201 220.884 116.645 221.01 117.209 221.01C118.037 221.01 118.709 220.746 119.225 220.218C119.741 219.69 119.999 218.994 119.999 218.13ZM125.935 222V214.53H122.875V213.36H130.255V214.53H127.195V222H125.935ZM132.058 222V213.36H133.318V216.24H135.478C136.462 216.24 137.23 216.504 137.782 217.032C138.346 217.548 138.628 218.244 138.628 219.12C138.628 219.996 138.346 220.698 137.782 221.226C137.23 221.742 136.468 222 135.496 222H132.058ZM140.248 222V213.36H141.508V222H140.248ZM133.318 220.83H135.496C136.072 220.83 136.528 220.674 136.864 220.362C137.2 220.038 137.368 219.624 137.368 219.12C137.368 218.604 137.194 218.19 136.846 217.878C136.51 217.566 136.054 217.41 135.478 217.41H133.318V220.83ZM65.4986 247V238.36H69.4586C70.2626 238.36 70.8986 238.57 71.3666 238.99C71.8346 239.41 72.0686 239.95 72.0686 240.61C72.0686 241.138 71.8886 241.594 71.5286 241.978C71.3726 242.134 71.1926 242.278 70.9886 242.41C71.2646 242.506 71.5046 242.638 71.7086 242.806C72.1886 243.214 72.4286 243.772 72.4286 244.48C72.4286 245.26 72.1826 245.878 71.6906 246.334C71.2106 246.778 70.5266 247 69.6386 247H65.4986ZM66.7586 241.87H69.4586C70.3586 241.87 70.8086 241.48 70.8086 240.7C70.8086 239.92 70.3586 239.53 69.4586 239.53H66.7586V241.87ZM66.7586 245.83H69.6386C70.6586 245.83 71.1686 245.35 71.1686 244.39C71.1686 243.43 70.6586 242.95 69.6386 242.95H66.7586V245.83ZM78.9916 247V234.4H80.3416V239.98H87.3616V234.4H88.7116V247H87.3616V241.24H80.3416V247H78.9916ZM98.9356 245.884C98.0836 246.748 97.0456 247.18 95.8216 247.18C94.5976 247.18 93.5536 246.748 92.6896 245.884C91.8376 245.008 91.4116 243.94 91.4116 242.68C91.4116 241.42 91.8376 240.358 92.6896 239.494C93.5536 238.618 94.5976 238.18 95.8216 238.18C97.0456 238.18 98.0836 238.618 98.9356 239.494C99.7996 240.358 100.232 241.42 100.232 242.68C100.232 243.94 99.7996 245.008 98.9356 245.884ZM93.5896 245.038C94.2136 245.686 94.9576 246.01 95.8216 246.01C96.6856 246.01 97.4236 245.692 98.0356 245.056C98.6596 244.408 98.9716 243.616 98.9716 242.68C98.9716 241.744 98.6596 240.958 98.0356 240.322C97.4236 239.674 96.6856 239.35 95.8216 239.35C94.9576 239.35 94.2136 239.674 93.5896 240.322C92.9776 240.958 92.6716 241.744 92.6716 242.68C92.6716 243.604 92.9776 244.39 93.5896 245.038ZM102.933 247V239.53H101.583V238.36H102.933V237.1C102.933 236.296 103.137 235.678 103.545 235.246C103.965 234.802 104.541 234.58 105.273 234.58C105.561 234.58 105.861 234.628 106.173 234.724C106.209 234.748 106.329 234.79 106.533 234.85V236.02L106.191 235.894C105.903 235.798 105.627 235.75 105.363 235.75C104.583 235.75 104.193 236.2 104.193 237.1V238.36H108.063V236.74C108.063 235.936 108.267 235.318 108.675 234.886C109.095 234.442 109.671 234.22 110.403 234.22C110.691 234.22 110.991 234.268 111.303 234.364C111.339 234.376 111.459 234.418 111.663 234.49V235.66L111.321 235.534C111.033 235.438 110.757 235.39 110.493 235.39C109.713 235.39 109.323 235.84 109.323 236.74V238.36H111.393V239.53H109.323V247H108.063V239.53H104.193V247H102.933Z" fill="#1A1A1A"/>
<rect x="192.477" y="153.477" width="175.046" height="124.046" rx="11.523" fill="#F5F7F9"/>
<rect x="192.477" y="153.477" width="175.046" height="124.046" rx="11.523" stroke="#DFE6EC" stroke-width="0.954082"/>
<path d="M241.97 197V184.4H251.69V197H250.34V185.66H243.32V197H241.97ZM261.914 195.884C261.062 196.748 260.024 197.18 258.8 197.18C257.576 197.18 256.532 196.748 255.668 195.884C254.816 195.008 254.39 193.94 254.39 192.68C254.39 191.42 254.816 190.358 255.668 189.494C256.532 188.618 257.576 188.18 258.8 188.18C260.024 188.18 261.062 188.618 261.914 189.494C262.778 190.358 263.21 191.42 263.21 192.68C263.21 193.94 262.778 195.008 261.914 195.884ZM256.568 195.038C257.192 195.686 257.936 196.01 258.8 196.01C259.664 196.01 260.402 195.692 261.014 195.056C261.638 194.408 261.95 193.616 261.95 192.68C261.95 191.744 261.638 190.958 261.014 190.322C260.402 189.674 259.664 189.35 258.8 189.35C257.936 189.35 257.192 189.674 256.568 190.322C255.956 190.958 255.65 191.744 255.65 192.68C255.65 193.604 255.956 194.39 256.568 195.038ZM263.846 197V195.74C263.918 195.788 263.99 195.818 264.062 195.83C264.218 195.89 264.386 195.92 264.566 195.92C264.938 195.92 265.226 195.812 265.43 195.596C265.646 195.38 265.826 194.894 265.97 194.138C266.114 193.37 266.186 192.284 266.186 190.88V188.36H272.486V197H271.226V189.53H267.446V190.88C267.446 192.152 267.38 193.214 267.248 194.066C267.128 194.906 266.942 195.548 266.69 195.992C266.438 196.436 266.156 196.748 265.844 196.928C265.544 197.096 265.178 197.18 264.746 197.18C264.53 197.18 264.32 197.15 264.116 197.09C264.056 197.078 263.966 197.048 263.846 197ZM274.728 200.6V199.43C274.836 199.478 274.932 199.508 275.016 199.52C275.22 199.58 275.424 199.61 275.628 199.61C276.372 199.61 276.912 199.16 277.248 198.26L277.698 197L274.188 188.36H275.538L278.328 195.38L281.118 188.36H282.468L278.508 198.26C278.148 199.172 277.758 199.82 277.338 200.204C276.93 200.588 276.42 200.78 275.808 200.78C275.532 200.78 275.274 200.75 275.034 200.69C274.95 200.678 274.848 200.648 274.728 200.6ZM289.762 197V193.49C289.546 193.622 289.318 193.742 289.078 193.85C288.55 194.09 287.968 194.21 287.332 194.21C286.348 194.21 285.544 193.904 284.92 193.292C284.308 192.668 284.002 191.864 284.002 190.88V188.36H285.262V190.88C285.262 191.516 285.46 192.038 285.856 192.446C286.264 192.842 286.786 193.04 287.422 193.04C288.01 193.04 288.58 192.908 289.132 192.644C289.372 192.512 289.582 192.374 289.762 192.23V188.36H291.022V197H289.762ZM293.903 197V188.36H295.163V194.84L300.383 188.36H301.463V197H300.203V190.52L294.983 197H293.903ZM306.324 197V189.53H303.264V188.36H310.644V189.53H307.584V197H306.324ZM312.448 197V188.36H313.708V191.24H315.958C316.942 191.24 317.71 191.504 318.262 192.032C318.826 192.548 319.108 193.244 319.108 194.12C319.108 194.996 318.826 195.698 318.262 196.226C317.71 196.742 316.948 197 315.976 197H312.448ZM313.708 195.83H315.976C316.552 195.83 317.008 195.674 317.344 195.362C317.68 195.038 317.848 194.624 317.848 194.12C317.848 193.604 317.674 193.19 317.326 192.878C316.99 192.566 316.534 192.41 315.958 192.41H313.708V195.83ZM232.89 219.57L233.79 220.38C233.55 220.68 233.232 220.98 232.836 221.28C231.996 221.88 231.114 222.18 230.19 222.18C229.002 222.18 227.982 221.742 227.13 220.866C226.29 219.99 225.87 218.928 225.87 217.68C225.87 216.432 226.29 215.37 227.13 214.494C227.982 213.618 229.002 213.18 230.19 213.18C231.126 213.18 231.99 213.468 232.782 214.044C233.106 214.284 233.412 214.566 233.7 214.89L232.8 215.79C232.608 215.526 232.386 215.286 232.134 215.07C231.558 214.59 230.91 214.35 230.19 214.35C229.362 214.35 228.642 214.674 228.03 215.322C227.43 215.958 227.13 216.744 227.13 217.68C227.13 218.616 227.43 219.408 228.03 220.056C228.642 220.692 229.362 221.01 230.19 221.01C230.874 221.01 231.54 220.77 232.188 220.29C232.464 220.062 232.698 219.822 232.89 219.57ZM242.067 219.57L242.877 220.38C242.649 220.692 242.343 220.992 241.959 221.28C241.119 221.88 240.225 222.18 239.277 222.18C238.089 222.18 237.069 221.742 236.217 220.866C235.377 219.99 234.957 218.928 234.957 217.68C234.957 216.432 235.377 215.37 236.217 214.494C237.057 213.618 238.047 213.18 239.187 213.18C240.375 213.18 241.359 213.588 242.139 214.404C242.931 215.22 243.327 216.252 243.327 217.5C243.327 217.56 243.309 217.716 243.273 217.968L243.237 218.148L236.217 218.13C236.265 218.91 236.583 219.588 237.171 220.164C237.771 220.728 238.473 221.01 239.277 221.01C240.009 221.01 240.699 220.77 241.347 220.29C241.659 220.038 241.899 219.798 242.067 219.57ZM236.217 217.05H242.067C241.971 216.27 241.653 215.628 241.113 215.124C240.585 214.608 239.943 214.35 239.187 214.35C238.431 214.35 237.771 214.614 237.207 215.142C236.643 215.67 236.313 216.306 236.217 217.05ZM245.572 225.78V213.36H246.832V214.62C247.036 214.344 247.282 214.104 247.57 213.9C248.218 213.42 248.962 213.18 249.802 213.18C250.99 213.18 251.992 213.606 252.808 214.458C253.624 215.31 254.032 216.384 254.032 217.68C254.032 218.976 253.624 220.05 252.808 220.902C251.992 221.754 250.99 222.18 249.802 222.18C248.962 222.18 248.218 221.94 247.57 221.46C247.282 221.256 247.036 221.016 246.832 220.74V225.78H245.572ZM249.802 221.01C250.63 221.01 251.332 220.698 251.908 220.074C252.484 219.45 252.772 218.652 252.772 217.68C252.772 216.708 252.484 215.91 251.908 215.286C251.332 214.662 250.63 214.35 249.802 214.35C249.022 214.35 248.332 214.674 247.732 215.322C247.132 215.97 246.832 216.756 246.832 217.68C246.832 218.604 247.132 219.39 247.732 220.038C248.332 220.686 249.022 221.01 249.802 221.01ZM258.081 222V214.53H255.021V213.36H262.401V214.53H259.341V222H258.081ZM264.205 222V213.36H265.465V219.84L270.685 213.36H271.765V222H270.505V215.52L265.285 222H264.205ZM278.966 225.78V222.18C277.514 222.18 276.326 221.754 275.402 220.902C274.478 220.038 274.016 218.964 274.016 217.68C274.016 216.396 274.478 215.328 275.402 214.476C276.326 213.612 277.514 213.18 278.966 213.18V209.4H280.226V213.18C281.678 213.18 282.866 213.612 283.79 214.476C284.714 215.328 285.176 216.396 285.176 217.68C285.176 218.964 284.714 220.038 283.79 220.902C282.866 221.754 281.678 222.18 280.226 222.18V225.78H278.966ZM278.966 221.01V214.35C277.862 214.35 276.968 214.668 276.284 215.304C275.612 215.928 275.276 216.72 275.276 217.68C275.276 218.652 275.612 219.45 276.284 220.074C276.956 220.698 277.85 221.01 278.966 221.01ZM280.226 214.35V221.01C281.342 221.01 282.236 220.698 282.908 220.074C283.58 219.45 283.916 218.652 283.916 217.68C283.916 216.72 283.574 215.928 282.89 215.304C282.218 214.668 281.33 214.35 280.226 214.35ZM287.425 222V213.36H288.685V219.84L293.905 213.36H294.985V222H293.725V215.52L288.505 222H287.425ZM297.867 222V213.36H299.127V217.95L303.447 213.36H304.977L301.647 216.87L305.337 222H303.897L300.837 217.77L299.127 219.57V222H297.867ZM311.999 222V220.83C311.819 221.082 311.591 221.31 311.315 221.514C310.679 221.958 309.977 222.18 309.209 222.18C308.333 222.18 307.601 221.928 307.013 221.424C306.437 220.908 306.149 220.32 306.149 219.66C306.149 218.196 306.989 217.326 308.669 217.05L311.999 216.51C311.999 215.874 311.795 215.358 311.387 214.962C310.991 214.554 310.475 214.35 309.839 214.35C309.215 214.35 308.621 214.56 308.057 214.98C307.793 215.208 307.577 215.418 307.409 215.61L306.599 214.8C306.827 214.5 307.109 214.23 307.445 213.99C308.177 213.45 308.975 213.18 309.839 213.18C310.823 213.18 311.639 213.498 312.287 214.134C312.935 214.77 313.259 215.562 313.259 216.51V222H311.999ZM311.999 218.13V217.59L309.029 218.13C307.949 218.322 307.409 218.832 307.409 219.66C307.409 220.044 307.565 220.368 307.877 220.632C308.201 220.884 308.645 221.01 309.209 221.01C310.037 221.01 310.709 220.746 311.225 220.218C311.741 219.69 311.999 218.994 311.999 218.13ZM317.935 222V214.53H314.875V213.36H322.255V214.53H319.195V222H317.935ZM324.058 222V213.36H325.318V216.24H327.478C328.462 216.24 329.23 216.504 329.782 217.032C330.346 217.548 330.628 218.244 330.628 219.12C330.628 219.996 330.346 220.698 329.782 221.226C329.23 221.742 328.468 222 327.496 222H324.058ZM332.248 222V213.36H333.508V222H332.248ZM325.318 220.83H327.496C328.072 220.83 328.528 220.674 328.864 220.362C329.2 220.038 329.368 219.624 329.368 219.12C329.368 218.604 329.194 218.19 328.846 217.878C328.51 217.566 328.054 217.41 327.478 217.41H325.318V220.83ZM238.338 247V238.36H242.298C243.102 238.36 243.738 238.57 244.206 238.99C244.674 239.41 244.908 239.95 244.908 240.61C244.908 241.138 244.728 241.594 244.368 241.978C244.212 242.134 244.032 242.278 243.828 242.41C244.104 242.506 244.344 242.638 244.548 242.806C245.028 243.214 245.268 243.772 245.268 244.48C245.268 245.26 245.022 245.878 244.53 246.334C244.05 246.778 243.366 247 242.478 247H238.338ZM239.598 241.87H242.298C243.198 241.87 243.648 241.48 243.648 240.7C243.648 239.92 243.198 239.53 242.298 239.53H239.598V241.87ZM239.598 245.83H242.478C243.498 245.83 244.008 245.35 244.008 244.39C244.008 243.43 243.498 242.95 242.478 242.95H239.598V245.83ZM251.831 247V234.4H253.001L258.221 241.24L263.441 234.4H264.611V247H263.261V236.74L258.221 243.4L253.181 236.74V247H251.831ZM267.724 246.946C267.568 246.778 267.49 246.556 267.49 246.28C267.49 246.004 267.568 245.788 267.724 245.632C267.892 245.464 268.114 245.38 268.39 245.38C268.666 245.38 268.882 245.464 269.038 245.632C269.206 245.788 269.29 246.004 269.29 246.28C269.29 246.556 269.206 246.778 269.038 246.946C268.882 247.102 268.666 247.18 268.39 247.18C268.114 247.18 267.892 247.102 267.724 246.946ZM272.169 247V234.4H277.029C278.049 234.4 278.889 234.712 279.549 235.336C280.209 235.96 280.539 236.728 280.539 237.64C280.539 238.456 280.299 239.14 279.819 239.692C279.579 239.956 279.339 240.142 279.099 240.25C279.483 240.43 279.825 240.664 280.125 240.952C280.821 241.624 281.169 242.44 281.169 243.4C281.169 244.444 280.809 245.308 280.089 245.992C279.381 246.664 278.451 247 277.299 247H272.169ZM273.519 239.692H277.029C277.713 239.692 278.241 239.512 278.613 239.152C278.997 238.78 279.189 238.276 279.189 237.64C279.189 237.04 278.997 236.56 278.613 236.2C278.229 235.84 277.701 235.66 277.029 235.66H273.519V239.692ZM273.519 245.74H277.299C278.055 245.74 278.661 245.524 279.117 245.092C279.585 244.66 279.819 244.096 279.819 243.4C279.819 242.704 279.585 242.11 279.117 241.618C278.649 241.126 278.043 240.88 277.299 240.88H273.519V245.74ZM283.69 247V238.36H284.95V244.84L290.17 238.36H291.25V247H289.99V240.52L284.77 247H283.69ZM292.691 249.16V245.83H293.321C293.609 245.53 293.861 245.134 294.077 244.642C294.593 243.538 294.851 242.284 294.851 240.88V238.36H300.791V245.83H302.141V249.16H300.881V247H293.951V249.16H292.691ZM294.671 245.83H299.531V239.53H296.111V240.88C296.111 242.236 295.871 243.478 295.391 244.606C295.175 245.086 294.935 245.494 294.671 245.83ZM310.596 244.57L311.406 245.38C311.178 245.692 310.872 245.992 310.488 246.28C309.648 246.88 308.754 247.18 307.806 247.18C306.618 247.18 305.598 246.742 304.746 245.866C303.906 244.99 303.486 243.928 303.486 242.68C303.486 241.432 303.906 240.37 304.746 239.494C305.586 238.618 306.576 238.18 307.716 238.18C308.904 238.18 309.888 238.588 310.668 239.404C311.46 240.22 311.856 241.252 311.856 242.5C311.856 242.56 311.838 242.716 311.802 242.968L311.766 243.148L304.746 243.13C304.794 243.91 305.112 244.588 305.7 245.164C306.3 245.728 307.002 246.01 307.806 246.01C308.538 246.01 309.228 245.77 309.876 245.29C310.188 245.038 310.428 244.798 310.596 244.57ZM304.746 242.05H310.596C310.5 241.27 310.182 240.628 309.642 240.124C309.114 239.608 308.472 239.35 307.716 239.35C306.96 239.35 306.3 239.614 305.736 240.142C305.172 240.67 304.842 241.306 304.746 242.05ZM320.994 245.884C320.142 246.748 319.104 247.18 317.88 247.18C316.656 247.18 315.612 246.748 314.748 245.884C313.896 245.008 313.47 243.94 313.47 242.68C313.47 241.42 313.896 240.358 314.748 239.494C315.612 238.618 316.656 238.18 317.88 238.18C319.104 238.18 320.142 238.618 320.994 239.494C321.858 240.358 322.29 241.42 322.29 242.68C322.29 243.94 321.858 245.008 320.994 245.884ZM315.648 245.038C316.272 245.686 317.016 246.01 317.88 246.01C318.744 246.01 319.482 245.692 320.094 245.056C320.718 244.408 321.03 243.616 321.03 242.68C321.03 241.744 320.718 240.958 320.094 240.322C319.482 239.674 318.744 239.35 317.88 239.35C317.016 239.35 316.272 239.674 315.648 240.322C315.036 240.958 314.73 241.744 314.73 242.68C314.73 243.604 315.036 244.39 315.648 245.038Z" fill="#1A1A1A"/>
<rect x="384.477" y="153.477" width="175.046" height="124.046" rx="11.523" fill="#F5F7F9"/>
<rect x="384.477" y="153.477" width="175.046" height="124.046" rx="11.523" stroke="#DFE6EC" stroke-width="0.954082"/>
<path d="M412.829 206.26L413.729 207.07C413.309 207.598 412.865 208.036 412.397 208.384C411.221 209.248 409.925 209.68 408.509 209.68C406.709 209.68 405.179 209.05 403.919 207.79C402.659 206.53 402.029 205 402.029 203.2C402.029 201.4 402.659 199.87 403.919 198.61C405.179 197.35 406.709 196.72 408.509 196.72C409.913 196.72 411.197 197.158 412.361 198.034C412.865 198.418 413.291 198.85 413.639 199.33L412.739 200.14C412.439 199.72 412.091 199.36 411.695 199.06C410.795 198.34 409.733 197.98 408.509 197.98C407.069 197.98 405.851 198.484 404.855 199.492C403.871 200.488 403.379 201.724 403.379 203.2C403.379 204.676 403.871 205.918 404.855 206.926C405.851 207.922 407.069 208.42 408.509 208.42C409.745 208.42 410.825 208.06 411.749 207.34C412.157 207.028 412.517 206.668 412.829 206.26ZM414.449 211.66V208.33H415.079C415.367 208.03 415.619 207.634 415.835 207.142C416.351 206.038 416.609 204.784 416.609 203.38V200.86H422.549V208.33H423.899V211.66H422.639V209.5H415.709V211.66H414.449ZM416.429 208.33H421.289V202.03H417.869V203.38C417.869 204.736 417.629 205.978 417.149 207.106C416.933 207.586 416.693 207.994 416.429 208.33ZM432.354 207.07L433.164 207.88C432.936 208.192 432.63 208.492 432.246 208.78C431.406 209.38 430.512 209.68 429.564 209.68C428.376 209.68 427.356 209.242 426.504 208.366C425.664 207.49 425.244 206.428 425.244 205.18C425.244 203.932 425.664 202.87 426.504 201.994C427.344 201.118 428.334 200.68 429.474 200.68C430.662 200.68 431.646 201.088 432.426 201.904C433.218 202.72 433.614 203.752 433.614 205C433.614 205.06 433.596 205.216 433.56 205.468L433.524 205.648L426.504 205.63C426.552 206.41 426.87 207.088 427.458 207.664C428.058 208.228 428.76 208.51 429.564 208.51C430.296 208.51 430.986 208.27 431.634 207.79C431.946 207.538 432.186 207.298 432.354 207.07ZM426.504 204.55H432.354C432.258 203.77 431.94 203.128 431.4 202.624C430.872 202.108 430.23 201.85 429.474 201.85C428.718 201.85 428.058 202.114 427.494 202.642C426.93 203.17 426.6 203.806 426.504 204.55ZM434.418 209.5V208.24C434.49 208.288 434.562 208.318 434.634 208.33C434.79 208.39 434.958 208.42 435.138 208.42C435.51 208.42 435.798 208.312 436.002 208.096C436.218 207.88 436.398 207.394 436.542 206.638C436.686 205.87 436.758 204.784 436.758 203.38V200.86H443.058V209.5H441.798V202.03H438.018V203.38C438.018 204.652 437.952 205.714 437.82 206.566C437.7 207.406 437.514 208.048 437.262 208.492C437.01 208.936 436.728 209.248 436.416 209.428C436.116 209.596 435.75 209.68 435.318 209.68C435.102 209.68 434.892 209.65 434.688 209.59C434.628 209.578 434.538 209.548 434.418 209.5ZM451.15 209.5V208.33C450.97 208.582 450.742 208.81 450.466 209.014C449.83 209.458 449.128 209.68 448.36 209.68C447.484 209.68 446.752 209.428 446.164 208.924C445.588 208.408 445.3 207.82 445.3 207.16C445.3 205.696 446.14 204.826 447.82 204.55L451.15 204.01C451.15 203.374 450.946 202.858 450.538 202.462C450.142 202.054 449.626 201.85 448.99 201.85C448.366 201.85 447.772 202.06 447.208 202.48C446.944 202.708 446.728 202.918 446.56 203.11L445.75 202.3C445.978 202 446.26 201.73 446.596 201.49C447.328 200.95 448.126 200.68 448.99 200.68C449.974 200.68 450.79 200.998 451.438 201.634C452.086 202.27 452.41 203.062 452.41 204.01V209.5H451.15ZM451.15 205.63V205.09L448.18 205.63C447.1 205.822 446.56 206.332 446.56 207.16C446.56 207.544 446.716 207.868 447.028 208.132C447.352 208.384 447.796 208.51 448.36 208.51C449.188 208.51 449.86 208.246 450.376 207.718C450.892 207.19 451.15 206.494 451.15 205.63ZM457.086 209.5V202.03H454.026V200.86H461.406V202.03H458.346V209.5H457.086ZM463.21 209.5V200.86H464.47V203.74H466.72C467.704 203.74 468.472 204.004 469.024 204.532C469.588 205.048 469.87 205.744 469.87 206.62C469.87 207.496 469.588 208.198 469.024 208.726C468.472 209.242 467.71 209.5 466.738 209.5H463.21ZM464.47 208.33H466.738C467.314 208.33 467.77 208.174 468.106 207.862C468.442 207.538 468.61 207.124 468.61 206.62C468.61 206.104 468.436 205.69 468.088 205.378C467.752 205.066 467.296 204.91 466.72 204.91H464.47V208.33ZM475.901 209.5V200.86H483.371V209.5H482.111V202.048H477.161V209.5H475.901ZM493.148 208.384C492.296 209.248 491.258 209.68 490.034 209.68C488.81 209.68 487.766 209.248 486.902 208.384C486.05 207.508 485.624 206.44 485.624 205.18C485.624 203.92 486.05 202.858 486.902 201.994C487.766 201.118 488.81 200.68 490.034 200.68C491.258 200.68 492.296 201.118 493.148 201.994C494.012 202.858 494.444 203.92 494.444 205.18C494.444 206.44 494.012 207.508 493.148 208.384ZM487.802 207.538C488.426 208.186 489.17 208.51 490.034 208.51C490.898 208.51 491.636 208.192 492.248 207.556C492.872 206.908 493.184 206.116 493.184 205.18C493.184 204.244 492.872 203.458 492.248 202.822C491.636 202.174 490.898 201.85 490.034 201.85C489.17 201.85 488.426 202.174 487.802 202.822C487.19 203.458 486.884 204.244 486.884 205.18C486.884 206.104 487.19 206.89 487.802 207.538ZM496.696 209.5V200.86H497.956V205.45L502.276 200.86H503.806L500.476 204.37L504.166 209.5H502.726L499.666 205.27L497.956 207.07V209.5H496.696ZM505.154 213.1V211.93C505.262 211.978 505.358 212.008 505.442 212.02C505.646 212.08 505.85 212.11 506.054 212.11C506.798 212.11 507.338 211.66 507.674 210.76L508.124 209.5L504.614 200.86H505.964L508.754 207.88L511.544 200.86H512.894L508.934 210.76C508.574 211.672 508.184 212.32 507.764 212.704C507.356 213.088 506.846 213.28 506.234 213.28C505.958 213.28 505.7 213.25 505.46 213.19C505.376 213.178 505.274 213.148 505.154 213.1ZM514.608 209.5V200.86H522.078V209.5H520.818V202.048H515.868V209.5H514.608ZM524.961 209.5V200.86H526.221V205.45L530.541 200.86H532.071L528.741 204.37L532.431 209.5H530.991L527.931 205.27L526.221 207.07V209.5H524.961ZM534.049 209.5V200.86H535.309V207.34L540.529 200.86H541.609V209.5H540.349V203.02L535.129 209.5H534.049ZM404.586 234.5V225.86H408.546C409.35 225.86 409.986 226.07 410.454 226.49C410.922 226.91 411.156 227.45 411.156 228.11C411.156 228.638 410.976 229.094 410.616 229.478C410.46 229.634 410.28 229.778 410.076 229.91C410.352 230.006 410.592 230.138 410.796 230.306C411.276 230.714 411.516 231.272 411.516 231.98C411.516 232.76 411.27 233.378 410.778 233.834C410.298 234.278 409.614 234.5 408.726 234.5H404.586ZM405.846 229.37H408.546C409.446 229.37 409.896 228.98 409.896 228.2C409.896 227.42 409.446 227.03 408.546 227.03H405.846V229.37ZM405.846 233.33H408.726C409.746 233.33 410.256 232.85 410.256 231.89C410.256 230.93 409.746 230.45 408.726 230.45H405.846V233.33ZM416.189 236.66V233.33H416.819C417.107 233.03 417.359 232.634 417.575 232.142C418.091 231.038 418.349 229.784 418.349 228.38V225.86H424.289V233.33H425.639V236.66H424.379V234.5H417.449V236.66H416.189ZM418.169 233.33H423.029V227.03H419.609V228.38C419.609 229.736 419.369 230.978 418.889 232.106C418.673 232.586 418.433 232.994 418.169 233.33ZM427.614 234.5V225.86H431.574C432.378 225.86 433.014 226.07 433.482 226.49C433.95 226.91 434.184 227.45 434.184 228.11C434.184 228.638 434.004 229.094 433.644 229.478C433.488 229.634 433.308 229.778 433.104 229.91C433.38 230.006 433.62 230.138 433.824 230.306C434.304 230.714 434.544 231.272 434.544 231.98C434.544 232.76 434.298 233.378 433.806 233.834C433.326 234.278 432.642 234.5 431.754 234.5H427.614ZM428.874 229.37H431.574C432.474 229.37 432.924 228.98 432.924 228.2C432.924 227.42 432.474 227.03 431.574 227.03H428.874V229.37ZM428.874 233.33H431.754C432.774 233.33 433.284 232.85 433.284 231.89C433.284 230.93 432.774 230.45 431.754 230.45H428.874V233.33ZM436.248 238.1V236.93C436.356 236.978 436.452 237.008 436.536 237.02C436.74 237.08 436.944 237.11 437.148 237.11C437.892 237.11 438.432 236.66 438.768 235.76L439.218 234.5L435.708 225.86H437.058L439.848 232.88L442.638 225.86H443.988L440.028 235.76C439.668 236.672 439.278 237.32 438.858 237.704C438.45 238.088 437.94 238.28 437.328 238.28C437.052 238.28 436.794 238.25 436.554 238.19C436.47 238.178 436.368 238.148 436.248 238.1ZM444.532 234.5L447.772 230L444.802 225.86H446.332L448.582 229.01L450.832 225.86H452.362L449.392 230L452.632 234.5H451.102L448.582 230.99L446.062 234.5H444.532ZM457.778 234.5V225.86H458.768L462.188 230.18L465.608 225.86H466.598V234.5H465.338V228.11L462.188 232.07L459.038 228.11V234.5H457.778ZM474.705 234.5V233.33C474.525 233.582 474.297 233.81 474.021 234.014C473.385 234.458 472.683 234.68 471.915 234.68C471.039 234.68 470.307 234.428 469.719 233.924C469.143 233.408 468.855 232.82 468.855 232.16C468.855 230.696 469.695 229.826 471.375 229.55L474.705 229.01C474.705 228.374 474.501 227.858 474.093 227.462C473.697 227.054 473.181 226.85 472.545 226.85C471.921 226.85 471.327 227.06 470.763 227.48C470.499 227.708 470.283 227.918 470.115 228.11L469.305 227.3C469.533 227 469.815 226.73 470.151 226.49C470.883 225.95 471.681 225.68 472.545 225.68C473.529 225.68 474.345 225.998 474.993 226.634C475.641 227.27 475.965 228.062 475.965 229.01V234.5H474.705ZM474.705 230.63V230.09L471.735 230.63C470.655 230.822 470.115 231.332 470.115 232.16C470.115 232.544 470.271 232.868 470.583 233.132C470.907 233.384 471.351 233.51 471.915 233.51C472.743 233.51 473.415 233.246 473.931 232.718C474.447 232.19 474.705 231.494 474.705 230.63ZM478.836 234.5V225.86H484.596V227.03H480.096V234.5H478.836ZM491.439 234.5V233.33C491.259 233.582 491.031 233.81 490.755 234.014C490.119 234.458 489.417 234.68 488.649 234.68C487.773 234.68 487.041 234.428 486.453 233.924C485.877 233.408 485.589 232.82 485.589 232.16C485.589 230.696 486.429 229.826 488.109 229.55L491.439 229.01C491.439 228.374 491.235 227.858 490.827 227.462C490.431 227.054 489.915 226.85 489.279 226.85C488.655 226.85 488.061 227.06 487.497 227.48C487.233 227.708 487.017 227.918 486.849 228.11L486.039 227.3C486.267 227 486.549 226.73 486.885 226.49C487.617 225.95 488.415 225.68 489.279 225.68C490.263 225.68 491.079 225.998 491.727 226.634C492.375 227.27 492.699 228.062 492.699 229.01V234.5H491.439ZM491.439 230.63V230.09L488.469 230.63C487.389 230.822 486.849 231.332 486.849 232.16C486.849 232.544 487.005 232.868 487.317 233.132C487.641 233.384 488.085 233.51 488.649 233.51C489.477 233.51 490.149 233.246 490.665 232.718C491.181 232.19 491.439 231.494 491.439 230.63ZM494.581 233.15L495.391 232.34C495.583 232.58 495.799 232.778 496.039 232.934C496.591 233.318 497.185 233.51 497.821 233.51C498.505 233.51 499.021 233.378 499.369 233.114C499.717 232.85 499.891 232.502 499.891 232.07C499.891 231.638 499.717 231.29 499.369 231.026C499.021 230.762 498.505 230.63 497.821 230.63H496.831V229.46H497.821C498.337 229.46 498.751 229.328 499.063 229.064C499.375 228.8 499.531 228.482 499.531 228.11C499.531 227.738 499.387 227.438 499.099 227.21C498.811 226.97 498.385 226.85 497.821 226.85C497.233 226.85 496.705 227.018 496.237 227.354C496.009 227.51 495.817 227.672 495.661 227.84L494.761 226.94C494.941 226.748 495.205 226.538 495.553 226.31C496.273 225.89 497.029 225.68 497.821 225.68C498.685 225.68 499.393 225.926 499.945 226.418C500.509 226.898 500.791 227.462 500.791 228.11C500.791 228.77 500.563 229.28 500.107 229.64C499.903 229.808 499.681 229.928 499.441 230C499.741 230.072 500.023 230.192 500.287 230.36C500.863 230.744 501.151 231.314 501.151 232.07C501.151 232.79 500.857 233.408 500.269 233.924C499.693 234.428 498.877 234.68 497.821 234.68C496.945 234.68 496.135 234.428 495.391 233.924C495.079 233.696 494.809 233.438 494.581 233.15ZM503.499 234.5V225.86H504.759V232.34L509.979 225.86H511.059V234.5H509.799V228.02L504.579 234.5H503.499ZM513.94 234.5V225.86H515.2V229.55H520.15V225.86H521.41V234.5H520.15V230.72H515.2V234.5H513.94ZM529.514 234.5V233.33C529.334 233.582 529.106 233.81 528.83 234.014C528.194 234.458 527.492 234.68 526.724 234.68C525.848 234.68 525.116 234.428 524.528 233.924C523.952 233.408 523.664 232.82 523.664 232.16C523.664 230.696 524.504 229.826 526.184 229.55L529.514 229.01C529.514 228.374 529.31 227.858 528.902 227.462C528.506 227.054 527.99 226.85 527.354 226.85C526.73 226.85 526.136 227.06 525.572 227.48C525.308 227.708 525.092 227.918 524.924 228.11L524.114 227.3C524.342 227 524.624 226.73 524.96 226.49C525.692 225.95 526.49 225.68 527.354 225.68C528.338 225.68 529.154 225.998 529.802 226.634C530.45 227.27 530.774 228.062 530.774 229.01V234.5H529.514ZM529.514 230.63V230.09L526.544 230.63C525.464 230.822 524.924 231.332 524.924 232.16C524.924 232.544 525.08 232.868 525.392 233.132C525.716 233.384 526.16 233.51 526.724 233.51C527.552 233.51 528.224 233.246 528.74 232.718C529.256 232.19 529.514 231.494 529.514 230.63ZM532.475 234.5L535.715 230L532.745 225.86H534.275L536.525 229.01L538.775 225.86H540.305L537.335 230L540.575 234.5H539.045L536.525 230.99L534.005 234.5H532.475Z" fill="#1A1A1A"/>
</svg>